<svg width="20" height="20" viewBox="0 0 20 20" fill="none" xmlns="http://www.w3.org/2000/svg">
<g id="solar:document-line-duotone">
<g id="Group">
<path id="Vector" d="M2.5 8.33268C2.5 5.19018 2.5 3.61852 3.47667 2.64268C4.4525 1.66602 6.02417 1.66602 9.16667 1.66602H10.8333C13.9758 1.66602 15.5475 1.66602 16.5233 2.64268C17.5 3.61852 17.5 5.19018 17.5 8.33268V11.666C17.5 14.8085 17.5 16.3802 16.5233 17.356C15.5475 18.3327 13.9758 18.3327 10.8333 18.3327H9.16667C6.02417 18.3327 4.4525 18.3327 3.47667 17.356C2.5 16.3802 2.5 14.8085 2.5 11.666V8.33268Z" stroke="#8A8A8A" stroke-width="1.25"/>
<path id="Vector_2" d="M6.66797 8.33301H13.3346M6.66797 11.6663H10.8346" stroke="black" stroke-width="1.25" stroke-linecap="round"/>
</g>
</g>
</svg>
