<svg width="24" height="24" viewBox="0 0 24 24" fill="none" xmlns="http://www.w3.org/2000/svg">
<g id="openmoji:github">
<g id="Vector">
<path d="M9.03809 20.9951C9.03809 20.9951 12.0948 21.9694 15.0138 20.9814L9.03809 20.9951Z" fill="#F4F1D4"/>
<path d="M9.03809 20.9951C9.03809 20.9951 12.0948 21.9694 15.0138 20.9814" stroke="#F4F1D4" stroke-width="0.87" stroke-linecap="round" stroke-linejoin="round"/>
</g>
<path id="Vector_2" d="M20.6073 11.966C20.6073 16.7379 16.7389 20.6063 11.9669 20.6063C7.19501 20.6063 3.3266 16.7379 3.3266 11.966C3.3266 7.19403 7.19501 3.32563 11.9669 3.32563C16.7389 3.32563 20.6073 7.19403 20.6073 11.966Z" fill="#F4F1D4" stroke="#F4F1D4" stroke-width="0.87"/>
<path id="Vector_3" d="M9.68151 20.5374C9.68151 20.2284 9.66984 19.2107 9.66984 17.9494C9.66984 17.0674 9.96117 16.4917 10.2908 16.1987C8.21517 15.958 6.03117 15.1474 6.03117 11.5204C6.03117 10.4877 6.39651 9.64304 6.99351 8.98204C6.89817 8.74204 6.57551 7.78004 7.08617 6.47738C7.08617 6.47738 7.87118 6.22271 9.65851 7.44671C11.1914 7.02432 12.81 7.02432 14.3428 7.44671C16.1282 6.22271 16.9132 6.47738 16.9132 6.47738C17.4238 7.78004 17.1032 8.74238 17.0058 8.98204C17.6045 9.64304 17.9662 10.4867 17.9662 11.5204C17.9662 15.1554 15.7798 15.956 13.6942 16.1897C14.0318 16.4837 14.3305 17.06 14.3305 17.944C14.3305 19.208 14.3188 20.2274 14.3188 20.5374C14.3188 20.7914 14.4872 21.0844 14.9622 20.9937C18.6775 19.741 21.3545 16.195 21.3545 12.0164C21.3545 6.79038 17.1655 2.55371 11.9988 2.55371C6.83217 2.55371 2.64551 6.78938 2.64551 12.0164C2.64551 16.1967 5.32551 19.7437 9.04617 20.9944C9.51117 21.0817 9.68151 20.7894 9.68151 20.5374Z" fill="#FFC70F"/>
<g id="Group">
<path id="Vector_4" d="M9.68053 20.5364C9.68053 20.2274 9.66887 19.2097 9.66887 17.9484C9.66887 17.0664 9.9602 16.4907 10.2899 16.1977C8.2142 15.9571 6.0302 15.1464 6.0302 11.5194C6.0302 10.4867 6.39553 9.64207 6.99253 8.98107C6.8972 8.74107 6.57453 7.77907 7.0852 6.4764C7.0852 6.4764 7.8702 6.22173 9.65753 7.44573C11.1904 7.02335 12.809 7.02335 14.3419 7.44573C16.1272 6.22173 16.9122 6.4764 16.9122 6.4764C17.4229 7.77907 17.1022 8.7414 17.0049 8.98107C17.6035 9.64207 17.9652 10.4857 17.9652 11.5194C17.9652 15.1544 15.7789 15.9551 13.6932 16.1887C14.0309 16.4827 14.3295 17.0591 14.3295 17.9431C14.3295 19.2071 14.3179 20.2264 14.3179 20.5364C14.3179 20.7904 14.4862 21.0834 14.9612 20.9927C18.6765 19.7401 21.3535 16.1941 21.3535 12.0154C21.3535 6.7894 17.1645 2.55273 11.9979 2.55273C6.8312 2.55273 2.64453 6.7884 2.64453 12.0154C2.64453 16.1957 5.32453 19.7427 9.0452 20.9934C9.5102 21.0807 9.68053 20.7884 9.68053 20.5364Z" stroke="black" stroke-width="0.87" stroke-linecap="round" stroke-linejoin="round"/>
<path id="Vector_5" d="M5.42871 16.0293C6.28471 16.2893 6.62204 16.5743 7.02504 17.2496C7.42671 17.925 7.89838 18.6786 9.66938 18.2493" stroke="black" stroke-width="0.87" stroke-linecap="round" stroke-linejoin="round"/>
</g>
</g>
</svg>
