<svg width="36" height="36" viewBox="0 0 36 36" fill="none" xmlns="http://www.w3.org/2000/svg">
<g id="Outline/Status/Lightning-alt">
<path id="Icon" fill-rule="evenodd" clip-rule="evenodd" d="M20.4207 3.46493C20.8357 3.6416 21.105 4.04902 21.105 4.50003V14.9973H27C27.4001 14.9973 27.77 15.2098 27.9717 15.5553C28.1733 15.9008 28.1763 16.3274 27.9795 16.6757L27.2414 17.982C24.4422 22.936 20.8723 27.4129 16.6659 31.2447L15.4726 32.3317C15.1433 32.6317 14.6679 32.7091 14.2604 32.5291C13.8529 32.3491 13.59 31.9455 13.59 31.5V21.0917H7.5C6.87868 21.0917 6.375 20.5881 6.375 19.9667C6.375 19.7655 6.42784 19.5766 6.5204 19.4132C9.15858 14.536 12.5363 10.0968 16.5333 6.25345L19.2003 3.68909C19.5254 3.37649 20.0057 3.28826 20.4207 3.46493ZM9.42687 18.8417H14.715C15.3363 18.8417 15.84 19.3454 15.84 19.9667V28.9418C19.4679 25.5135 22.5775 21.574 25.0701 17.2473H19.98C19.3587 17.2473 18.855 16.7436 18.855 16.1223V7.14245L18.0928 7.87532C14.7167 11.1216 11.8017 14.8117 9.42687 18.8417Z" fill="#FEEBA9"/>
</g>
</svg>
